<?xml version="1.0" standalone="no"?><!DOCTYPE svg PUBLIC "-//W3C//DTD SVG 1.1//EN" "http://www.w3.org/Graphics/SVG/1.1/DTD/svg11.dtd"><svg width="950" height="950" version="1.1" xmlns="http://www.w3.org/2000/svg" xmlns:xlink="http://www.w3.org/1999/xlink"><defs class="svg-crowbar"><style type="text/css"/></defs><g transform="translate(475,475)"><g class="arc"><path d="M2.0512833885718166e-14,-335A335,335 0 0,1 44.203553350798636,-332.07084465692424L2.639018110495441,-19.82512505414473A20,20 0 0,0 1.2246467991473533e-15,-20Z" style="fill: rgb(31, 119, 180);"/><text transform="translate(11.73632583355265,-177.111571208458)" dy=".35em" style="text-anchor: middle;">ASXL1</text></g><g class="arc"><path d="M38.76057849790179,-291.18152423275075A293.75,293.75 0 0,1 58.32576536949949,-287.90131572131116L3.971115940051029,-19.601791708685017A20,20 0 0,0 2.639018110495441,-19.82512505414473Z" style="fill: rgb(31, 119, 180);"/><text transform="translate(25.938911814745705,-154.71566979096477)" dy=".35em" style="text-anchor: middle;">ASXL1</text></g><g class="arc"><path d="M70.23911318965258,-346.70669084736625A353.75,353.75 0 0,1 105.52162897822647,-337.64515147974737L5.965887150712451,-19.08947852889031A20,20 0 0,0 3.971115940051029,-19.601791708685017Z" style="fill: rgb(31, 119, 180);"/><text transform="translate(46.48609418870827,-181.00085268329136)" dy=".35em" style="text-anchor: middle;">ASXL1</text></g><g class="arc"><path d="M78.67513680002045,-251.74249809974094A263.75,263.75 0 0,1 95.90514992253466,-245.6954715055533L7.272428430144808,-18.630936227909253A20,20 0 0,0 5.965887150712451,-19.08947852889031Z" style="fill: rgb(31, 119, 180);"/><text transform="translate(46.98280922173633,-133.86982954584624)" dy=".35em" style="text-anchor: middle;">ASXL1</text></g><g class="arc"><path d="M123.1767565355777,-315.561482360213A338.75,338.75 0 0,1 159.85949635917768,-298.657837539533L9.43819904703632,-17.632935057684602A20,20 0 0,0 7.272428430144808,-18.630936227909253Z" style="fill: rgb(31, 119, 180);"/><text transform="translate(75.07024261562121,-162.91055613014083)" dy=".35em" style="text-anchor: middle;">ASXL1</text></g><g class="arc"><path d="M140.39321082466526,-262.28990898305847A297.5,297.5 0 0,1 157.29032873296464,-252.51931111714194L10.574139746753925,-16.97608814232887A20,20 0 0,0 9.43819904703632,-17.632935057684602Z" style="fill: rgb(174, 199, 232);"/><text transform="translate(79.46673939695887,-137.4285262586186)" dy=".35em" style="text-anchor: middle;">ASXL2</text></g><g class="arc"><path d="M165.2209335430301,-265.2513772238886A312.5,312.5 0 0,1 210.32195513004575,-231.12967180843532L13.460605128322928,-14.792298995739861A20,20 0 0,0 10.574139746753925,-16.97608814232887Z" style="fill: rgb(255, 127, 14);"/><text transform="translate(100.30589905612987,-132.58125476303763)" dy=".35em" style="text-anchor: middle;">ATM</text></g><g class="arc"><path d="M129.5583243601082,-142.37587783399616A192.5,192.5 0 0,1 145.76370491451107,-125.73461070681908L15.144281030079071,-13.063336177331852A20,20 0 0,0 13.460605128322928,-14.792298995739861Z" style="fill: rgb(255, 187, 120);"/><text transform="translate(76.12039611401981,-74.12656605728286)" dy=".35em" style="text-anchor: middle;">ATRX</text></g><g class="arc"><path d="M196.87565339102792,-169.82337030531409A260,260 0 0,1 210.5537955883525,-152.535566879788L16.196445814488655,-11.733505144599077A20,20 0 0,0 15.144281030079071,-13.063336177331852Z" style="fill: rgb(44, 160, 44);"/><text transform="translate(109.79124609497553,-86.86703794255057)" dy=".35em" style="text-anchor: middle;">BCORL1</text></g><g class="arc"><path d="M292.5483025242013,-211.93643667432082A361.25,361.25 0 0,1 306.9800265844026,-190.4332580675957L16.995433997752393,-10.543017747686958A20,20 0 0,0 16.196445814488655,-11.733505144599077Z" style="fill: rgb(152, 223, 138);"/><text transform="translate(158.28176325257797,-106.22981712614803)" dy=".35em" style="text-anchor: middle;">CBL</text></g><g class="arc"><path d="M243.2471490928311,-150.89694151376958A286.25,286.25 0 0,1 264.17147002153536,-110.23836413273303L18.45739528534745,-7.702243782199687A20,20 0 0,0 16.995433997752393,-10.543017747686958Z" style="fill: rgb(214, 39, 40);"/><text transform="translate(136.15285597737457,-70.06900480386669)" dy=".35em" style="text-anchor: middle;">CRIPAK</text></g><g class="arc"><path d="M253.78918517352741,-105.90585200524569A275,275 0 0,1 267.4100323913731,-64.16287537544427L19.448002355736225,-4.666390936395947A20,20 0 0,0 18.45739528534745,-7.702243782199687Z" style="fill: rgb(255, 152, 150);"/><text transform="translate(140.2237306757127,-45.75538608060464)" dy=".35em" style="text-anchor: middle;">CYP2C19</text></g><g class="arc"><path d="M329.4005399002823,-79.03699648520636A338.75,338.75 0 0,1 336.7905064188632,-36.38292574994026L19.884310342073103,-2.1480694169706425A20,20 0 0,0 19.448002355736225,-4.666390936395947Z" style="fill: rgb(148, 103, 189);"/><text transform="translate(176.74200037423523,-30.62116798415492)" dy=".35em" style="text-anchor: middle;">DNMT3A</text></g><g class="arc"><path d="M288.32249996006,-31.14700654607432A290,290 0 0,1 289.91537294940196,7.005464125179432L19.994163651682893,0.48313545690892634A20,20 0 0,0 19.884310342073103,-2.1480694169706425Z" style="fill: rgb(148, 103, 189);"/><text transform="translate(154.86508775785094,-6.465647202958557)" dy=".35em" style="text-anchor: middle;">DNMT3A</text></g><g class="arc"><path d="M334.90224116568845,8.092518903224516A335,335 0 0,1 334.2080345874193,23.021503365643163L19.952718482831003,1.3744181113816814A20,20 0 0,0 19.994163651682893,0.48313545690892634Z" style="fill: rgb(148, 103, 189);"/><text transform="translate(177.3084061041878,8.244945408697843)" dy=".35em" style="text-anchor: middle;">DNMT3A</text></g><g class="arc"><path d="M330.46689987188853,22.7637999697591A331.25,331.25 0 0,1 328.4834257873802,42.722376841494906L19.8329615569739,2.5794642621279946A20,20 0 0,0 19.952718482831003,1.3744181113816814Z" style="fill: rgb(148, 103, 189);"/><text transform="translate(174.76410969499244,17.367975918818335)" dy=".35em" style="text-anchor: middle;">DNMT3A</text></g><g class="arc"><path d="M328.4834257873802,42.722376841494906A331.25,331.25 0 0,1 318.9923936389369,89.27718241802613L19.259918106501853,5.390320447880823A20,20 0 0,0 19.8329615569739,2.5794642621279946Z" style="fill: rgb(148, 103, 189);"/><text transform="translate(172.08528901591913,35.08267277884596)" dy=".35em" style="text-anchor: middle;">DNMT3A</text></g><g class="arc"><path d="M308.15868970402965,86.24512716609317A320,320 0 0,1 299.02378122086384,113.950771232041L18.68898632630399,7.121923202002563A20,20 0 0,0 19.259918106501853,5.390320447880823Z" style="fill: rgb(148, 103, 189);"/><text transform="translate(161.45065867225165,53.23236622860282)" dy=".35em" style="text-anchor: middle;">DNMT3A</text></g><g class="arc"><path d="M313.04052096559184,119.29221363354291A335,335 0 0,1 302.449697852887,144.04575755188822L18.05669837927684,8.599746719515714A20,20 0 0,0 18.68898632630399,7.121923202002563Z" style="fill: rgb(148, 103, 189);"/><text transform="translate(163.19079295478832,69.82130831477886)" dy=".35em" style="text-anchor: middle;">DNMT3A</text></g><g class="arc"><path d="M248.2796027150565,118.24651739334107A275,275 0 0,1 230.07442984603628,150.6345137444315L16.732685806984456,10.955237363231383A20,20 0 0,0 18.05669837927684,8.599746719515714Z" style="fill: rgb(148, 103, 189);"/><text transform="translate(128.5795658434173,72.27409804015758)" dy=".35em" style="text-anchor: middle;">DNMT3A</text></g><g class="arc"><path d="M267.7229729117513,175.28379781170213A320,320 0 0,1 253.28531960410737,195.5672438652373L15.83033247525671,12.22295274157733A20,20 0 0,0 16.732685806984456,10.955237363231383Z" style="fill: rgb(148, 103, 189);"/><text transform="translate(138.49766439767797,98.58193017175185)" dy=".35em" style="text-anchor: middle;">DNMT3A</text></g><g class="arc"><path d="M259.2216942823286,200.1508511433288A327.5,327.5 0 0,1 241.6610392816843,221.03436857940494L14.757926063003621,13.498282050650683A20,20 0 0,0 15.83033247525671,12.22295274157733Z" style="fill: rgb(148, 103, 189);"/><text transform="translate(132.98318266214378,111.82368098505297)" dy=".35em" style="text-anchor: middle;">DNMT3A</text></g><g class="arc"><path d="M227.82548359761842,208.37972915691992A308.75,308.75 0 0,1 218.00764630510955,218.6303470529795L14.121952797092117,14.162289687642396A20,20 0 0,0 14.757926063003621,13.498282050650683Z" style="fill: rgb(148, 103, 189);"/><text transform="translate(118.70961674901791,113.69770233518922)" dy=".35em" style="text-anchor: middle;">DNMT3A</text></g><g class="arc"><path d="M249.78204009856682,250.49549885017487A353.75,353.75 0 0,1 234.40414969135102,264.9410445881776L13.252531431313132,14.97899898731746A20,20 0 0,0 14.121952797092117,14.162289687642396Z" style="fill: rgb(148, 103, 189);"/><text transform="translate(127.94707392876268,136.2050362434067)" dy=".35em" style="text-anchor: middle;">DNMT3A</text></g><g class="arc"><path d="M182.22230718055556,205.96123607561506A275,275 0 0,1 167.56766665033786,218.05062965596144L12.186739392751845,15.85822761134265A20,20 0 0,0 13.252531431313132,14.97899898731746Z" style="fill: rgb(148, 103, 189);"/><text transform="translate(93.86332191217267,113.78016874487332)" dy=".35em" style="text-anchor: middle;">DNMT3A</text></g><g class="arc"><path d="M172.1376939226198,223.99746501021494A282.5,282.5 0 0,1 153.45917255378666,237.18459553501177L10.86436619849817,16.791829772390216A20,20 0 0,0 12.186739392751845,15.85822761134265Z" style="fill: rgb(148, 103, 189);"/><text transform="translate(87.2334524130775,123.55924603240076)" dy=".35em" style="text-anchor: middle;">DNMT3A</text></g><g class="arc"><path d="M181.97813382484435,281.2631486875361A335,335 0 0,1 146.83322715082727,301.10629917767176L8.766162814974761,17.976495473293838A20,20 0 0,0 10.86436619849817,16.791829772390216Z" style="fill: rgb(148, 103, 189);"/><text transform="translate(87.26895200792038,154.56513195232387)" dy=".35em" style="text-anchor: middle;">DNMT3A</text></g><g class="arc"><path d="M127.10936081713405,260.65918436276064A290,290 0 0,1 91.05262875822386,275.33510273159334L6.279491638498197,18.988627774592647A20,20 0 0,0 8.766162814974761,17.976495473293838Z" style="fill: rgb(148, 103, 189);"/><text transform="translate(58.433680445926555,143.56359214488657)" dy=".35em" style="text-anchor: middle;">DNMT3A</text></g><g class="arc"><path d="M66.3271304316372,200.5673808691348A211.25,211.25 0 0,1 30.230246561462177,209.0758108745084L2.8620351774165376,19.794159609420912A20,20 0 0,0 6.279491638498197,18.988627774592647Z" style="fill: rgb(197, 176, 213);"/><text transform="translate(26.527118378637496,112.54089308125182)" dy=".35em" style="text-anchor: middle;">FANCD2</text></g><g class="arc"><path d="M27.547088582634174,190.5187862406763A192.5,192.5 0 0,1 -6.6382868042471035,192.3855065962729L-0.6896921355061926,19.98810458143095A20,20 0 0,0 2.8620351774165376,19.794159609420912Z" style="fill: rgb(140, 86, 75);"/><text transform="translate(5.793237371107488,106.0919455037092)" dy=".35em" style="text-anchor: middle;">IDH1</text></g><g class="arc"><path d="M-7.543507732098981,218.619893859401A218.75,218.75 0 0,1 -20.62922187951112,217.77510809237566L-1.8861002861267309,19.910867025588633A20,20 0 0,0 -0.6896921355061926,19.98810458143095Z" style="fill: rgb(196, 156, 148);"/><text transform="translate(-7.690585698748599,119.12701421848112)" dy=".35em" style="text-anchor: middle;">JAK2</text></g><g class="arc"><path d="M-24.872947523296265,262.5745588999501A263.75,263.75 0 0,1 -46.11422186721966,259.68739099459725L-3.4968130325853775,19.691934862149555A20,20 0 0,0 -1.8861002861267309,19.910867025588633Z" style="fill: rgb(196, 156, 148);"/><text transform="translate(-19.108305443333535,140.58231854712125)" dy=".35em" style="text-anchor: middle;">JAK2</text></g><g class="arc"><path d="M-55.94900852136604,315.0709577943929A320,320 0 0,1 -88.46061143691998,307.5300314184068L-5.5287882148074985,19.220626963650425A20,20 0 0,0 -3.4968130325853775,19.691934862149555Z" style="fill: rgb(196, 156, 148);"/><text transform="translate(-38.4110685581845,165.60371315951357)" dy=".35em" style="text-anchor: middle;">JAK2</text></g><g class="arc"><path d="M-74.9841901633267,260.67975319450886A271.25,271.25 0 0,1 -102.6289880376701,251.08535065663185L-7.567114325358164,18.513205578369167A20,20 0 0,0 -5.5287882148074985,19.220626963650425Z" style="fill: rgb(196, 156, 148);"/><text transform="translate(-47.74678068550995,137.57501793265305)" dy=".35em" style="text-anchor: middle;">JAK2</text></g><g class="arc"><path d="M-102.6289880376701,251.08535065663185A271.25,271.25 0 0,1 -135.63535338244708,234.90341294416885L-10.000763383037572,17.320067313855766A20,20 0 0,0 -7.567114325358164,18.513205578369167Z" style="fill: rgb(196, 156, 148);"/><text transform="translate(-64.10539057356313,130.7560305470112)" dy=".35em" style="text-anchor: middle;">JAK2</text></g><g class="arc"><path d="M-167.51278666587933,290.1111275070841A335,335 0 0,1 -210.87363443676063,260.3023440144776L-12.589470712642425,15.54043844862553A20,20 0 0,0 -10.000763383037572,17.320067313855766Z" style="fill: rgb(196, 156, 148);"/><text transform="translate(-100.5547443588942,146.27027513106495)" dy=".35em" style="text-anchor: middle;">JAK2</text></g><g class="arc"><path d="M-206.15258291951972,254.47467959624302A327.5,327.5 0 0,1 -244.5295053096226,217.85676724176196L-14.933099560892984,13.304230060565615A20,20 0 0,0 -12.589470712642425,15.54043844862553Z" style="fill: rgb(196, 156, 148);"/><text transform="translate(-119.94512758766469,125.7069165478926)" dy=".35em" style="text-anchor: middle;">JAK2</text></g><g class="arc"><path d="M-238.92959297428774,212.86768096904984A320,320 0 0,1 -288.0702022734918,139.33972356119236L-18.00438764209324,8.708732722574522A20,20 0 0,0 -14.933099560892984,13.304230060565615Z" style="fill: rgb(196, 156, 148);"/><text transform="translate(-141.34024428214337,94.46129020008162)" dy=".35em" style="text-anchor: middle;">JAK2</text></g><g class="arc"><path d="M-382.5932373944813,185.0605703547086A425,425 0 0,1 -411.8872300205298,104.75643057118354L-19.38292847155434,4.9297143798204015A20,20 0 0,0 -18.00438764209324,8.708732722574522Z" style="fill: rgb(227, 119, 194);"/><text transform="translate(-209.02661115773222,76.25041526388051)" dy=".35em" style="text-anchor: middle;">KRAS</text></g><g class="arc"><path d="M-317.3954537217023,80.72407296955907A327.5,327.5 0 0,1 -327.2933028688392,11.633739605402255L-19.987377274432927,0.7104573804825804A20,20 0 0,0 -19.38292847155434,4.9297143798204015Z" style="fill: rgb(247, 182, 210);"/><text transform="translate(-171.9940218445096,24.639783881973287)" dy=".35em" style="text-anchor: middle;">MC1R</text></g><g class="arc"><path d="M-346.03146906362,12.299793399604674A346.25,346.25 0 0,1 -344.5791437811567,-33.97464011648918L-19.903488449453093,-1.9624340861509995A20,20 0 0,0 -19.987377274432927,0.7104573804825804Z" style="fill: rgb(127, 127, 127);"/><text transform="translate(-183.03487557258848,-5.744558218614617)" dy=".35em" style="text-anchor: middle;">PPM1D</text></g><g class="arc"><path d="M-232.62202125298302,-22.93594838188981A233.75,233.75 0 0,1 -230.03668884988838,-41.49920822111705L-19.682283537958366,-3.5507343932506568A20,20 0 0,0 -19.903488449453093,-1.9624340861509995Z" style="fill: rgb(127, 127, 127);"/><text transform="translate(-125.66214753418875,-17.50115145056982)" dy=".35em" style="text-anchor: middle;">PPM1D</text></g><g class="arc"><path d="M-377.65381538457615,-68.12971617049698A383.75,383.75 0 0,1 -373.57056482858627,-87.80145553264477L-19.46947569139212,-4.575971623851193A20,20 0 0,0 -19.682283537958366,-3.5507343932506568Z" style="fill: rgb(199, 199, 199);"/><text transform="translate(-197.66177024151182,-41.02852922043131)" dy=".35em" style="text-anchor: middle;">SF3B1</text></g><g class="arc"><path d="M-329.764244522954,-77.50551937897957A338.75,338.75 0 0,1 -312.8679954861564,-129.8660074864643L-18.4719111726144,-7.667365755658409A20,20 0 0,0 -19.46947569139212,-4.575971623851193Z" style="fill: rgb(199, 199, 199);"/><text transform="translate(-170.7072371120929,-55.08565895544584)" dy=".35em" style="text-anchor: middle;">SF3B1</text></g><g class="arc"><path d="M-274.7696786926392,-114.05206561541883A297.5,297.5 0 0,1 -264.15169733896767,-136.85806805936738L-17.758097300098665,-9.200542390545706A20,20 0 0,0 -18.4719111726144,-7.667365755658409Z" style="fill: rgb(188, 189, 34);"/><text transform="translate(-143.91653630131154,-67.00442581675689)" dy=".35em" style="text-anchor: middle;">SH2B3</text></g><g class="arc"><path d="M-320.7556324830321,-166.18479692923182A361.25,361.25 0 0,1 -283.8459637076512,-223.4570012035308L-15.71465543018138,-12.371321865939422A20,20 0 0,0 -17.758097300098665,-9.200542390545706Z" style="fill: rgb(219, 219, 141);"/><text transform="translate(-160.2326880343624,-103.2636253008904)" dy=".35em" style="text-anchor: middle;">TET2</text></g><g class="arc"><path d="M-260.2739805623791,-204.90001840462168A331.25,331.25 0 0,1 -232.76676381768598,-235.68240528694886L-14.053842343709341,-14.229881073928986A20,20 0 0,0 -15.71465543018138,-12.371321865939422Z" style="fill: rgb(219, 219, 141);"/><text transform="translate(-130.9567999005933,-117.02331897872307)" dy=".35em" style="text-anchor: middle;">TET2</text></g><g class="arc"><path d="M-232.76676381768598,-235.68240528694886A331.25,331.25 0 0,1 -208.1239243486309,-257.70330733951664L-12.565972790860734,-15.559444971442513A20,20 0 0,0 -14.053842343709341,-14.229881073928986Z" style="fill: rgb(219, 219, 141);"/><text transform="translate(-117.02331897872287,-130.95679990059347)" dy=".35em" style="text-anchor: middle;">TET2</text></g><g class="arc"><path d="M-226.972883534922,-281.0424747966804A361.25,361.25 0 0,1 -204.67264056637515,-297.6754486073506L-11.33135726319032,-16.48030165300211A20,20 0 0,0 -12.565972790860734,-15.559444971442513Z" style="fill: rgb(219, 219, 141);"/><text transform="translate(-113.97023430948725,-152.80273661306126)" dy=".35em" style="text-anchor: middle;">TET2</text></g><g class="arc"><path d="M-240.7913418427943,-350.20641012629477A425,425 0 0,1 -219.2512681738783,-364.0794987418903L-10.317706737594271,-17.133152881971306A20,20 0 0,0 -11.33135726319032,-16.48030165300211Z" style="fill: rgb(23, 190, 207);"/><text transform="translate(-120.47766176404555,-187.05983806223142)" dy=".35em" style="text-anchor: middle;">TP53</text></g><g class="arc"><path d="M-161.2141677749105,-267.70551378080165A312.5,312.5 0 0,1 -124.92439072682076,-286.443967647309L-7.995161006516529,-18.332413929427776A20,20 0 0,0 -10.317706737594271,-17.133152881971306Z" style="fill: rgb(23, 190, 207);"/><text transform="translate(-76.2758904483905,-147.7195012051731)" dy=".35em" style="text-anchor: middle;">TP53</text></g><g class="arc"><path d="M-76.9534246877216,-176.44948407074236A192.5,192.5 0 0,1 -43.43821065033879,-187.53498835016572L-4.513060846788445,-19.484154633783454A20,20 0 0,0 -7.995161006516529,-18.332413929427776Z" style="fill: rgb(23, 190, 207);"/><text transform="translate(-33.36551569948219,-100.87519448361726)" dy=".35em" style="text-anchor: middle;">TP53</text></g><g class="arc"><path d="M-43.43821065033879,-187.53498835016572A192.5,192.5 0 0,1 -11.599548031085085,-192.15020292852816L-1.2051478473854633,-19.963657447119807A20,20 0 0,0 -4.513060846788445,-19.484154633783454Z" style="fill: rgb(23, 190, 207);"/><text transform="translate(-15.242300755311687,-105.1510093517158)" dy=".35em" style="text-anchor: middle;">TP53</text></g><g class="arc"><path d="M-25.609391756941097,-424.2277207512959A425,425 0 0,1 6.768804232994628e-13,-425L3.185319639056295e-14,-20A20,20 0 0,0 -1.2051478473854633,-19.963657447119807Z" style="fill: rgb(23, 190, 207);"/><text transform="translate(-6.706682317891784,-222.39889930547514)" dy=".35em" style="text-anchor: middle;">TP53</text></g><g class="arc"><path d="M7.963299097640737e-14,-50A50,50 0 0,1 7.963299097640737e-14,-50L3.185319639056295e-14,-20A20,20 0 0,0 3.185319639056295e-14,-20Z" style="fill: rgb(158, 218, 229);"/><text transform="translate(5.5743093683485165e-14,-35)" dy=".35em" style="text-anchor: middle;"/></g><g class="circle-ticks"><circle r="20" class="circle" style="stroke: rgb(238, 238, 238); opacity: 0.5; fill: none;"/><text text-anchor="center" dy="15" style="fill: rgb(255, 255, 255);">0</text></g><g class="circle-ticks"><circle r="105" class="circle" style="stroke: rgb(238, 238, 238); opacity: 0.5; fill: none;"/><text text-anchor="center" dy="100" style="fill: rgb(255, 255, 255);">20</text></g><g class="circle-ticks"><circle r="190" class="circle" style="stroke: rgb(238, 238, 238); opacity: 0.5; fill: none;"/><text text-anchor="center" dy="185" style="fill: rgb(255, 255, 255);">40</text></g><g class="circle-ticks"><circle r="275" class="circle" style="stroke: rgb(238, 238, 238); opacity: 0.5; fill: none;"/><text text-anchor="center" dy="270" style="fill: rgb(255, 255, 255);">60</text></g><g class="circle-ticks"><circle r="360" class="circle" style="stroke: rgb(238, 238, 238); opacity: 0.5; fill: none;"/><text text-anchor="center" dy="355" style="fill: rgb(255, 255, 255);">80</text></g><g class="circle-ticks"><circle r="445" class="circle" style="stroke: rgb(238, 238, 238); opacity: 0.5; fill: none;"/><text text-anchor="center" dy="440" style="fill: rgb(255, 255, 255);">100</text></g></g></svg>